<?xml version="1.0" encoding="UTF-8" standalone="no"?>
<!-- Created with Inkscape (http://www.inkscape.org/) -->

<svg
   xmlns:osb="http://www.openswatchbook.org/uri/2009/osb"
   xmlns:dc="http://purl.org/dc/elements/1.1/"
   xmlns:cc="http://creativecommons.org/ns#"
   xmlns:rdf="http://www.w3.org/1999/02/22-rdf-syntax-ns#"
   xmlns:svg="http://www.w3.org/2000/svg"
   xmlns="http://www.w3.org/2000/svg"
   xmlns:xlink="http://www.w3.org/1999/xlink"
   xmlns:sodipodi="http://sodipodi.sourceforge.net/DTD/sodipodi-0.dtd"
   xmlns:inkscape="http://www.inkscape.org/namespaces/inkscape"
   width="200"
   height="25"
   viewBox="0 0 52.916666 6.6145839"
   version="1.1"
   id="svg8"
   inkscape:version="0.92.5 (2060ec1f9f, 2020-04-08)"
   sodipodi:docname="crm-logo.svg">
  <defs
     id="defs2">
    <linearGradient
       id="linearGradient825"
       osb:paint="solid">
      <stop
         style="stop-color:#000000;stop-opacity:1;"
         offset="0"
         id="stop823" />
    </linearGradient>
    <linearGradient
       inkscape:collect="always"
       xlink:href="#linearGradient825"
       id="linearGradient827"
       x1="12.770251"
       y1="104.39164"
       x2="237.7278"
       y2="104.39164"
       gradientUnits="userSpaceOnUse" />
  </defs>
  <sodipodi:namedview
     id="base"
     pagecolor="#ff517f"
     bordercolor="#666666"
     borderopacity="1.0"
     inkscape:pageopacity="1"
     inkscape:pageshadow="2"
     inkscape:zoom="5.12"
     inkscape:cx="111.11537"
     inkscape:cy="-18.28211"
     inkscape:document-units="mm"
     inkscape:current-layer="layer1"
     showgrid="false"
     units="px"
     inkscape:window-width="1920"
     inkscape:window-height="1031"
     inkscape:window-x="0"
     inkscape:window-y="47"
     inkscape:window-maximized="1"
     inkscape:showpageshadow="false"
     borderlayer="true" />
  <metadata
     id="metadata5">
    <rdf:RDF>
      <cc:Work
         rdf:about="">
        <dc:format>image/svg+xml</dc:format>
        <dc:type
           rdf:resource="http://purl.org/dc/dcmitype/StillImage" />
        <dc:title></dc:title>
      </cc:Work>
    </rdf:RDF>
  </metadata>
  <g
     inkscape:groupmode="layer"
     id="layer2"
     inkscape:label="Layer 2"
     transform="translate(0,-290.3854)" />
  <g
     inkscape:label="Layer 1"
     inkscape:groupmode="layer"
     id="layer1"
     transform="translate(0,-290.3854)">
    <g
       aria-label="100mori chan"
       transform="matrix(1.0420226,0,0,1.2626576,0.2464932,-3.9607679)"
       style="font-style:normal;font-variant:normal;font-weight:bold;font-stretch:normal;font-size:6.743361px;line-height:1.25;font-family:Verdana;-inkscape-font-specification:'Verdana, Bold';font-variant-ligatures:normal;font-variant-caps:normal;font-variant-numeric:normal;font-feature-settings:normal;text-align:start;letter-spacing:0px;word-spacing:0px;writing-mode:lr-tb;text-anchor:start;fill:#ffffff;fill-opacity:1;stroke:none;stroke-width:0.09636959"
       id="text817">
      <path
         d="m 3.0363481,238.23976 h -3.27290075 v -0.85609 h 1.03389422 v -2.59132 h -1.03389422 v -0.80012 q 0.23707128724,0 0.45438663,-0.0263 0.21731535,-0.0296 0.36219224,-0.0988 0.17121815,-0.0823 0.25682723,-0.21402 0.0856091,-0.13171 0.0987797,-0.32927 H 2.0255025 v 4.05985 h 1.0108456 z"
         style="font-style:normal;font-variant:normal;font-weight:bold;font-stretch:normal;font-size:6.743361px;font-family:Verdana;-inkscape-font-specification:'Verdana, Bold';font-variant-ligatures:normal;font-variant-caps:normal;font-variant-numeric:normal;font-feature-settings:normal;text-align:start;writing-mode:lr-tb;text-anchor:start;fill:#ffffff;fill-opacity:1;stroke-width:0.09636959"
         id="path818"
         inkscape:connector-curvature="0" />
      <path
         d="m 8.1070397,235.78673 q 0,0.61902 -0.1119503,1.10963 -0.1119504,0.48731 -0.3490216,0.80011 -0.2436566,0.31939 -0.6256048,0.48402 -0.3819482,0.16134 -0.9416998,0.16134 -0.5498737,0 -0.9384072,-0.16463 -0.3885335,-0.16463 -0.6288975,-0.48731 -0.2436565,-0.32268 -0.3523142,-0.80012 -0.1086577,-0.48073 -0.1086577,-1.09975 0,-0.63877 0.1119503,-1.10962 0.1119504,-0.47085 0.355607,-0.79682 0.2436566,-0.32268 0.6321901,-0.48402 0.3885335,-0.16134 0.9285292,-0.16134 0.5630443,0 0.9449924,0.16792 0.3819482,0.16463 0.6256048,0.4939 0.240364,0.32268 0.3490216,0.79682 0.1086577,0.47085 0.1086577,1.08987 z m -1.2742582,0 q 0,-0.88902 -0.1745108,-1.26438 -0.1745108,-0.37865 -0.5795075,-0.37865 -0.4049968,0 -0.5795076,0.37865 -0.1745108,0.37536 -0.1745108,1.27097 0,0.87255 0.1778034,1.25779 0.1778035,0.38524 0.576215,0.38524 0.3984114,0 0.5762149,-0.38524 0.1778034,-0.38524 0.1778034,-1.26438 z"
         style="font-style:normal;font-variant:normal;font-weight:bold;font-stretch:normal;font-size:6.743361px;font-family:Verdana;-inkscape-font-specification:'Verdana, Bold';font-variant-ligatures:normal;font-variant-caps:normal;font-variant-numeric:normal;font-feature-settings:normal;text-align:start;writing-mode:lr-tb;text-anchor:start;fill:#ffffff;fill-opacity:1;stroke-width:0.09636959"
         id="path820"
         inkscape:connector-curvature="0" />
      <path
         d="m 12.901148,235.78673 q 0,0.61902 -0.11195,1.10963 -0.111951,0.48731 -0.349022,0.80011 -0.243656,0.31939 -0.625605,0.48402 -0.381948,0.16134 -0.941699,0.16134 -0.549874,0 -0.9384076,-0.16463 -0.3885335,-0.16463 -0.6288975,-0.48731 -0.2436566,-0.32268 -0.3523142,-0.80012 -0.1086577,-0.48073 -0.1086577,-1.09975 0,-0.63877 0.1119503,-1.10962 0.1119504,-0.47085 0.355607,-0.79682 0.2436566,-0.32268 0.63219,-0.48402 0.3885337,-0.16134 0.9285297,-0.16134 0.563044,0 0.944992,0.16792 0.381948,0.16463 0.625605,0.4939 0.240364,0.32268 0.349021,0.79682 0.108658,0.47085 0.108658,1.08987 z m -1.274258,0 q 0,-0.88902 -0.174511,-1.26438 -0.174511,-0.37865 -0.579507,-0.37865 -0.404997,0 -0.579508,0.37865 -0.174511,0.37536 -0.174511,1.27097 0,0.87255 0.177804,1.25779 0.177803,0.38524 0.576215,0.38524 0.398411,0 0.576214,-0.38524 0.177804,-0.38524 0.177804,-1.26438 z"
         style="font-style:normal;font-variant:normal;font-weight:bold;font-stretch:normal;font-size:6.743361px;font-family:Verdana;-inkscape-font-specification:'Verdana, Bold';font-variant-ligatures:normal;font-variant-caps:normal;font-variant-numeric:normal;font-feature-settings:normal;text-align:start;writing-mode:lr-tb;text-anchor:start;fill:#ffffff;fill-opacity:1;stroke-width:0.09636959"
         id="path822"
         inkscape:connector-curvature="0" />
      <path
         d="m 17.445015,235.61881 v 2.62095 h -1.191942 v -1.84718 q 0,-0.27 -0.01317,-0.45768 -0.01317,-0.19097 -0.07244,-0.30951 -0.05927,-0.11853 -0.181096,-0.17122 -0.118536,-0.056 -0.335851,-0.056 -0.174511,0 -0.339144,0.0724 -0.164633,0.0691 -0.296339,0.14817 v 2.62095 h -1.185357 v -3.69765 h 1.185357 v 0.40829 q 0.306217,-0.24037 0.586093,-0.37537 0.279876,-0.13499 0.619019,-0.13499 0.365485,0 0.645361,0.16463 0.279876,0.16134 0.437923,0.47743 0.355607,-0.29963 0.691458,-0.47085 0.335851,-0.17121 0.658532,-0.17121 0.599263,0 0.908773,0.3589 0.312802,0.35889 0.312802,1.03389 v 2.40693 h -1.191941 v -1.84718 q 0,-0.27329 -0.01317,-0.46097 -0.0099,-0.18768 -0.06915,-0.30622 -0.05598,-0.11853 -0.177803,-0.17122 -0.121829,-0.056 -0.342437,-0.056 -0.148169,0 -0.289753,0.0527 -0.141585,0.0494 -0.345729,0.16793 z"
         style="font-style:normal;font-variant:normal;font-weight:bold;font-stretch:normal;font-size:6.743361px;font-family:Verdana;-inkscape-font-specification:'Verdana, Bold';font-variant-ligatures:normal;font-variant-caps:normal;font-variant-numeric:normal;font-feature-settings:normal;text-align:start;writing-mode:lr-tb;text-anchor:start;fill:#ffffff;fill-opacity:1;stroke-width:0.09636959"
         id="path824"
         inkscape:connector-curvature="0" />
      <path
         d="m 24.744836,236.39258 q 0,0.91207 -0.533411,1.43889 -0.530118,0.52353 -1.491573,0.52353 -0.961456,0 -1.494867,-0.52353 -0.530117,-0.52682 -0.530117,-1.43889 0,-0.91865 0.53341,-1.44218 0.536703,-0.52354 1.491574,-0.52354 0.968041,0 1.494866,0.52683 0.530118,0.52683 0.530118,1.43889 z m -1.458647,0.8989 q 0.115243,-0.14159 0.171218,-0.33915 0.05927,-0.20085 0.05927,-0.55316 0,-0.32598 -0.05927,-0.54658 -0.05927,-0.22061 -0.164633,-0.35232 -0.105365,-0.135 -0.253535,-0.19097 -0.148169,-0.056 -0.319387,-0.056 -0.171219,0 -0.306217,0.0461 -0.131707,0.0461 -0.253535,0.18439 -0.108658,0.12841 -0.174511,0.35231 -0.06256,0.2239 -0.06256,0.56305 0,0.30292 0.05598,0.52682 0.05598,0.22061 0.164633,0.35561 0.105365,0.12841 0.250242,0.18768 0.148169,0.0593 0.335851,0.0593 0.16134,0 0.306217,-0.0527 0.148169,-0.056 0.250242,-0.18438 z"
         style="font-style:normal;font-variant:normal;font-weight:bold;font-stretch:normal;font-size:6.743361px;font-family:Verdana;-inkscape-font-specification:'Verdana, Bold';font-variant-ligatures:normal;font-variant-caps:normal;font-variant-numeric:normal;font-feature-settings:normal;text-align:start;writing-mode:lr-tb;text-anchor:start;fill:#ffffff;fill-opacity:1;stroke-width:0.09636959"
         id="path826"
         inkscape:connector-curvature="0" />
      <path
         d="m 28.274563,235.67149 h -0.105365 q -0.07573,-0.0263 -0.243657,-0.0395 -0.167925,-0.0132 -0.279876,-0.0132 -0.253534,0 -0.447801,0.0329 -0.194267,0.0329 -0.418167,0.11195 v 2.47608 H 25.59434 v -3.69765 h 1.185357 v 0.54329 q 0.391826,-0.33585 0.68158,-0.44451 0.289753,-0.11195 0.53341,-0.11195 0.06256,0 0.141584,0.003 0.07902,0.003 0.138292,0.01 z"
         style="font-style:normal;font-variant:normal;font-weight:bold;font-stretch:normal;font-size:6.743361px;font-family:Verdana;-inkscape-font-specification:'Verdana, Bold';font-variant-ligatures:normal;font-variant-caps:normal;font-variant-numeric:normal;font-feature-settings:normal;text-align:start;writing-mode:lr-tb;text-anchor:start;fill:#ffffff;fill-opacity:1;stroke-width:0.09636959"
         id="path828"
         inkscape:connector-curvature="0" />
      <path
         d="m 30.131622,238.23976 h -1.185357 v -3.69765 h 1.185357 z m 0.03293,-4.22448 h -1.251209 v -0.89889 h 1.251209 z"
         style="font-style:normal;font-variant:normal;font-weight:bold;font-stretch:normal;font-size:6.743361px;font-family:Verdana;-inkscape-font-specification:'Verdana, Bold';font-variant-ligatures:normal;font-variant-caps:normal;font-variant-numeric:normal;font-feature-settings:normal;text-align:start;writing-mode:lr-tb;text-anchor:start;fill:#ffffff;fill-opacity:1;stroke-width:0.09636959"
         id="path830"
         inkscape:connector-curvature="0" />
      <path
         d="m 35.482188,238.33854 q -0.484021,0 -0.885725,-0.11524 -0.398411,-0.11524 -0.694751,-0.35561 -0.293046,-0.24036 -0.454386,-0.60585 -0.16134,-0.36548 -0.16134,-0.85609 0,-0.51695 0.171218,-0.89231 0.174511,-0.37536 0.48402,-0.62231 0.299632,-0.23378 0.691458,-0.34244 0.391826,-0.10865 0.813286,-0.10865 0.378656,0 0.698044,0.0823 0.319387,0.0823 0.595971,0.21402 v 1.01085 h -0.167926 q -0.06915,-0.0593 -0.167925,-0.13829 -0.09549,-0.079 -0.237072,-0.15476 -0.134999,-0.0724 -0.296339,-0.11853 -0.16134,-0.0494 -0.375363,-0.0494 -0.474142,0 -0.73097,0.30292 -0.253534,0.29963 -0.253534,0.81658 0,0.53341 0.26012,0.81 0.263412,0.27658 0.74414,0.27658 0.223901,0 0.401704,-0.0494 0.181096,-0.0527 0.299632,-0.12183 0.11195,-0.0659 0.197559,-0.13829 0.08561,-0.0724 0.158048,-0.14159 h 0.167926 v 1.01085 q -0.279876,0.13171 -0.586093,0.20744 -0.302925,0.079 -0.671702,0.079 z"
         style="font-style:normal;font-variant:normal;font-weight:bold;font-stretch:normal;font-size:6.743361px;font-family:Verdana;-inkscape-font-specification:'Verdana, Bold';font-variant-ligatures:normal;font-variant-caps:normal;font-variant-numeric:normal;font-feature-settings:normal;text-align:start;writing-mode:lr-tb;text-anchor:start;fill:#ffffff;fill-opacity:1;stroke-width:0.09636959"
         id="path832"
         inkscape:connector-curvature="0" />
      <path
         d="M 41.237752,238.23976 H 40.04581 v -1.83401 q 0,-0.2239 -0.02305,-0.44451 -0.02305,-0.2239 -0.07902,-0.32926 -0.06585,-0.12183 -0.194267,-0.17781 -0.125121,-0.056 -0.352315,-0.056 -0.16134,0 -0.329265,0.0527 -0.164633,0.0527 -0.3589,0.16793 v 2.62095 h -1.185356 v -5.12337 h 1.185356 v 1.83401 q 0.316095,-0.24695 0.605849,-0.37866 0.293047,-0.1317 0.648653,-0.1317 0.599264,0 0.935115,0.34902 0.339144,0.34902 0.339144,1.04377 z"
         style="font-style:normal;font-variant:normal;font-weight:bold;font-stretch:normal;font-size:6.743361px;font-family:Verdana;-inkscape-font-specification:'Verdana, Bold';font-variant-ligatures:normal;font-variant-caps:normal;font-variant-numeric:normal;font-feature-settings:normal;text-align:start;writing-mode:lr-tb;text-anchor:start;fill:#ffffff;fill-opacity:1;stroke-width:0.09636959"
         id="path834"
         inkscape:connector-curvature="0" />
      <path
         d="m 44.566627,237.27501 v -0.77048 q -0.240364,0.0198 -0.52024,0.056 -0.279876,0.0329 -0.424753,0.079 -0.177803,0.056 -0.27329,0.16463 -0.09219,0.10537 -0.09219,0.27988 0,0.11524 0.01976,0.18768 0.01976,0.0724 0.09878,0.13829 0.07573,0.0659 0.181096,0.0988 0.105365,0.0296 0.329266,0.0296 0.177804,0 0.3589,-0.0724 0.184388,-0.0724 0.32268,-0.19098 z m 0,0.57293 q -0.09549,0.0724 -0.237071,0.17451 -0.141585,0.10207 -0.266705,0.16134 -0.174511,0.079 -0.362193,0.11524 -0.187681,0.0395 -0.411582,0.0395 -0.526825,0 -0.882432,-0.32597 -0.355607,-0.32597 -0.355607,-0.83304 0,-0.405 0.181096,-0.66183 0.181096,-0.25683 0.513655,-0.40499 0.329265,-0.14817 0.816579,-0.21073 0.487313,-0.0626 1.010845,-0.0922 v -0.0198 q 0,-0.30621 -0.250242,-0.42146 -0.250242,-0.11853 -0.737555,-0.11853 -0.293046,0 -0.625605,0.10536 -0.332558,0.10208 -0.477435,0.15805 h -0.108657 v -0.89231 q 0.187681,-0.0494 0.609141,-0.11524 0.424753,-0.0692 0.849506,-0.0692 1.010845,0 1.458646,0.31281 0.451094,0.3095 0.451094,0.97462 v 2.51559 h -1.175478 z"
         style="font-style:normal;font-variant:normal;font-weight:bold;font-stretch:normal;font-size:6.743361px;font-family:Verdana;-inkscape-font-specification:'Verdana, Bold';font-variant-ligatures:normal;font-variant-caps:normal;font-variant-numeric:normal;font-feature-settings:normal;text-align:start;writing-mode:lr-tb;text-anchor:start;fill:#ffffff;fill-opacity:1;stroke-width:0.09636959"
         id="path836"
         inkscape:connector-curvature="0" />
      <path
         d="m 50.546094,238.23976 h -1.191942 v -1.83401 q 0,-0.2239 -0.02305,-0.44451 -0.02305,-0.2239 -0.07902,-0.32926 -0.06585,-0.12183 -0.194266,-0.17781 -0.125121,-0.056 -0.352315,-0.056 -0.16134,0 -0.329265,0.0527 -0.164633,0.0527 -0.3589,0.16793 v 2.62095 H 46.83198 v -3.69765 h 1.185356 v 0.40829 q 0.316095,-0.24695 0.605849,-0.37866 0.293047,-0.1317 0.648653,-0.1317 0.599264,0 0.935115,0.34902 0.339144,0.34902 0.339144,1.04377 z"
         style="font-style:normal;font-variant:normal;font-weight:bold;font-stretch:normal;font-size:6.743361px;font-family:Verdana;-inkscape-font-specification:'Verdana, Bold';font-variant-ligatures:normal;font-variant-caps:normal;font-variant-numeric:normal;font-feature-settings:normal;text-align:start;writing-mode:lr-tb;text-anchor:start;fill:#ffffff;fill-opacity:1;stroke-width:0.09636959"
         id="path838"
         inkscape:connector-curvature="0" />
    </g>
  </g>
</svg>
